<svg width="26" height="26" viewBox="0 0 26 26" fill="none" xmlns="http://www.w3.org/2000/svg">
<path fill-rule="evenodd" clip-rule="evenodd" d="M7.02722 2.52793C8.05613 2.44582 9.03291 2.04122 9.81852 1.37173C11.6518 -0.190582 14.3482 -0.190582 16.1815 1.37173C16.9671 2.04122 17.9439 2.44582 18.9728 2.52793C21.3738 2.71953 23.2805 4.62617 23.4721 7.02722C23.5542 8.05613 23.9588 9.03291 24.6283 9.81852C26.1906 11.6518 26.1906 14.3482 24.6283 16.1815C23.9588 16.9671 23.5542 17.9439 23.4721 18.9728C23.2805 21.3738 21.3738 23.2805 18.9728 23.4721C17.9439 23.5542 16.9671 23.9588 16.1815 24.6283C14.3482 26.1906 11.6518 26.1906 9.81852 24.6283C9.03291 23.9588 8.05613 23.5542 7.02722 23.4721C4.62617 23.2805 2.71954 21.3738 2.52793 18.9728C2.44582 17.9439 2.04122 16.9671 1.37174 16.1815C-0.190579 14.3482 -0.190579 11.6518 1.37174 9.81852C2.04122 9.03291 2.44582 8.05613 2.52793 7.02722C2.71954 4.62617 4.62617 2.71953 7.02722 2.52793ZM18.9314 10.9314C19.5562 10.3065 19.5562 9.29346 18.9314 8.66863C18.3065 8.04379 17.2935 8.04379 16.6686 8.66863L11.4 13.9373L9.33137 11.8686C8.70653 11.2438 7.69347 11.2438 7.06863 11.8686C6.44379 12.4935 6.44379 13.5065 7.06863 14.1314L10.2686 17.3314C10.8935 17.9562 11.9065 17.9562 12.5314 17.3314L18.9314 10.9314Z" 
fill="#10B981"/>
</svg>
