<svg width="16" height="16" viewBox="0 0 16 16" fill="none" xmlns="http://www.w3.org/2000/svg">
  <g clip-path="url(#clip0_26_1203)">
    <path d="M13.3333 14.6667H2.66666V13.3334C2.66666 12.4493 3.01785 11.6015 3.64297 10.9763C4.26809 10.3512 5.11593 10 5.99999 10H9.99999C10.884 10 11.7319 10.3512 12.357 10.9763C12.9821 11.6015 13.3333 12.4493 13.3333 13.3334V14.6667ZM7.99999 8.66669C7.4747 8.66669 6.95456 8.56322 6.46926 8.36221C5.98395 8.16119 5.543 7.86655 5.17156 7.49511C4.80013 7.12368 4.50549 6.68272 4.30447 6.19742C4.10345 5.71212 3.99999 5.19197 3.99999 4.66669C3.99999 4.1414 4.10345 3.62126 4.30447 3.13595C4.50549 2.65065 4.80013 2.20969 5.17156 1.83826C5.543 1.46683 5.98395 1.17219 6.46926 0.971169C6.95456 0.77015 7.4747 0.666687 7.99999 0.666687C9.06086 0.666687 10.0783 1.08811 10.8284 1.83826C11.5786 2.58841 12 3.60582 12 4.66669C12 5.72755 11.5786 6.74497 10.8284 7.49511C10.0783 8.24526 9.06086 8.66669 7.99999 8.66669V8.66669Z" fill="currentColor" />
  </g>
  <defs>
    <clipPath id="clip0_26_1203">
      <rect width="16" height="16" fill="white" />
    </clipPath>
  </defs>
</svg>
  